<svg xmlns="http://www.w3.org/2000/svg" xmlns:xlink="http://www.w3.org/1999/xlink" width="500" zoomAndPan="magnify" viewBox="0 0 375 374.999991" height="500" preserveAspectRatio="xMidYMid meet" version="1.0"><defs><g/></defs><g fill="#ffffff" fill-opacity="1"><g transform="translate(75.682596, 187.310388)"><g><path d="M 3.921875 -29.140625 L 9.328125 -29.140625 L 9.328125 0 L 3.921875 0 Z M 3.921875 -29.140625 "/></g></g></g><g fill="#ffffff" fill-opacity="1"><g transform="translate(86.548591, 187.310388)"><g><path d="M 16.03125 -22.484375 C 18.832031 -22.484375 21.078125 -21.664062 22.765625 -20.03125 C 24.460938 -18.394531 25.3125 -15.960938 25.3125 -12.734375 L 25.3125 0 L 20.109375 0 L 20.109375 -12.078125 C 20.109375 -14.015625 19.648438 -15.476562 18.734375 -16.46875 C 17.816406 -17.457031 16.515625 -17.953125 14.828125 -17.953125 C 12.910156 -17.953125 11.394531 -17.375 10.28125 -16.21875 C 9.175781 -15.0625 8.625 -13.40625 8.625 -11.25 L 8.625 0 L 3.421875 0 L 3.421875 -22.234375 L 8.375 -22.234375 L 8.375 -19.359375 C 9.226562 -20.390625 10.304688 -21.164062 11.609375 -21.6875 C 12.921875 -22.21875 14.394531 -22.484375 16.03125 -22.484375 Z M 16.03125 -22.484375 "/></g></g></g><g fill="#ffffff" fill-opacity="1"><g transform="translate(112.653014, 187.310388)"><g><path d="M 10.28125 0.296875 C 8.476562 0.296875 6.71875 0.0625 5 -0.40625 C 3.28125 -0.882812 1.90625 -1.484375 0.875 -2.203125 L 2.875 -6.15625 C 3.875 -5.488281 5.070312 -4.953125 6.46875 -4.546875 C 7.875 -4.148438 9.257812 -3.953125 10.625 -3.953125 C 13.726562 -3.953125 15.28125 -4.769531 15.28125 -6.40625 C 15.28125 -7.1875 14.882812 -7.726562 14.09375 -8.03125 C 13.300781 -8.34375 12.03125 -8.632812 10.28125 -8.90625 C 8.445312 -9.1875 6.953125 -9.503906 5.796875 -9.859375 C 4.648438 -10.222656 3.65625 -10.851562 2.8125 -11.75 C 1.96875 -12.65625 1.546875 -13.914062 1.546875 -15.53125 C 1.546875 -17.644531 2.425781 -19.332031 4.1875 -20.59375 C 5.945312 -21.851562 8.328125 -22.484375 11.328125 -22.484375 C 12.847656 -22.484375 14.375 -22.304688 15.90625 -21.953125 C 17.4375 -21.609375 18.6875 -21.148438 19.65625 -20.578125 L 17.65625 -16.609375 C 15.769531 -17.722656 13.644531 -18.28125 11.28125 -18.28125 C 9.757812 -18.28125 8.601562 -18.050781 7.8125 -17.59375 C 7.019531 -17.132812 6.625 -16.53125 6.625 -15.78125 C 6.625 -14.945312 7.046875 -14.351562 7.890625 -14 C 8.734375 -13.65625 10.046875 -13.332031 11.828125 -13.03125 C 13.597656 -12.75 15.050781 -12.425781 16.1875 -12.0625 C 17.332031 -11.707031 18.3125 -11.097656 19.125 -10.234375 C 19.945312 -9.378906 20.359375 -8.160156 20.359375 -6.578125 C 20.359375 -4.492188 19.457031 -2.828125 17.65625 -1.578125 C 15.851562 -0.328125 13.394531 0.296875 10.28125 0.296875 Z M 10.28125 0.296875 "/></g></g></g><g fill="#ffffff" fill-opacity="1"><g transform="translate(131.679485, 187.310388)"><g><path d="M 24.9375 -22.234375 L 24.9375 0 L 19.984375 0 L 19.984375 -2.828125 C 19.148438 -1.828125 18.109375 -1.054688 16.859375 -0.515625 C 15.609375 0.0234375 14.265625 0.296875 12.828125 0.296875 C 9.859375 0.296875 7.519531 -0.523438 5.8125 -2.171875 C 4.101562 -3.828125 3.25 -6.28125 3.25 -9.53125 L 3.25 -22.234375 L 8.453125 -22.234375 L 8.453125 -10.25 C 8.453125 -8.25 8.898438 -6.753906 9.796875 -5.765625 C 10.703125 -4.773438 11.988281 -4.28125 13.65625 -4.28125 C 15.519531 -4.28125 17 -4.859375 18.09375 -6.015625 C 19.1875 -7.171875 19.734375 -8.832031 19.734375 -11 L 19.734375 -22.234375 Z M 24.9375 -22.234375 "/></g></g></g><g fill="#ffffff" fill-opacity="1"><g transform="translate(157.617375, 187.310388)"><g><path d="M 8.375 -18.984375 C 9.875 -21.316406 12.507812 -22.484375 16.28125 -22.484375 L 16.28125 -17.53125 C 15.832031 -17.613281 15.429688 -17.65625 15.078125 -17.65625 C 13.046875 -17.65625 11.460938 -17.0625 10.328125 -15.875 C 9.191406 -14.695312 8.625 -13 8.625 -10.78125 L 8.625 0 L 3.421875 0 L 3.421875 -22.234375 L 8.375 -22.234375 Z M 8.375 -18.984375 "/></g></g></g><g fill="#ffffff" fill-opacity="1"><g transform="translate(172.688512, 187.310388)"><g><path d="M 24.3125 -11 C 24.3125 -10.632812 24.285156 -10.117188 24.234375 -9.453125 L 6.78125 -9.453125 C 7.09375 -7.816406 7.894531 -6.519531 9.1875 -5.5625 C 10.476562 -4.601562 12.078125 -4.125 13.984375 -4.125 C 16.429688 -4.125 18.445312 -4.925781 20.03125 -6.53125 L 22.8125 -3.328125 C 21.8125 -2.140625 20.546875 -1.238281 19.015625 -0.625 C 17.492188 -0.0078125 15.773438 0.296875 13.859375 0.296875 C 11.421875 0.296875 9.269531 -0.1875 7.40625 -1.15625 C 5.550781 -2.132812 4.113281 -3.488281 3.09375 -5.21875 C 2.082031 -6.957031 1.578125 -8.925781 1.578125 -11.125 C 1.578125 -13.28125 2.066406 -15.226562 3.046875 -16.96875 C 4.035156 -18.707031 5.40625 -20.0625 7.15625 -21.03125 C 8.90625 -22 10.878906 -22.484375 13.078125 -22.484375 C 15.242188 -22.484375 17.175781 -22.003906 18.875 -21.046875 C 20.582031 -20.085938 21.914062 -18.738281 22.875 -17 C 23.832031 -15.269531 24.3125 -13.269531 24.3125 -11 Z M 13.078125 -18.328125 C 11.410156 -18.328125 10 -17.832031 8.84375 -16.84375 C 7.695312 -15.851562 7 -14.539062 6.75 -12.90625 L 19.359375 -12.90625 C 19.140625 -14.519531 18.457031 -15.828125 17.3125 -16.828125 C 16.175781 -17.828125 14.765625 -18.328125 13.078125 -18.328125 Z M 13.078125 -18.328125 "/></g></g></g><g fill="#ffffff" fill-opacity="1"><g transform="translate(214.364609, 187.310388)"><g><path d="M 24.5625 -15.15625 C 26.175781 -14.625 27.453125 -13.738281 28.390625 -12.5 C 29.335938 -11.269531 29.8125 -9.738281 29.8125 -7.90625 C 29.8125 -5.382812 28.835938 -3.4375 26.890625 -2.0625 C 24.953125 -0.6875 22.125 0 18.40625 0 L 3.921875 0 L 3.921875 -29.140625 L 17.578125 -29.140625 C 21.015625 -29.140625 23.660156 -28.46875 25.515625 -27.125 C 27.378906 -25.78125 28.3125 -23.925781 28.3125 -21.5625 C 28.3125 -20.125 27.976562 -18.847656 27.3125 -17.734375 C 26.644531 -16.628906 25.726562 -15.769531 24.5625 -15.15625 Z M 9.328125 -24.90625 L 9.328125 -16.859375 L 16.984375 -16.859375 C 18.878906 -16.859375 20.332031 -17.195312 21.34375 -17.875 C 22.351562 -18.5625 22.859375 -19.554688 22.859375 -20.859375 C 22.859375 -22.191406 22.351562 -23.195312 21.34375 -23.875 C 20.332031 -24.5625 18.878906 -24.90625 16.984375 -24.90625 Z M 18.078125 -4.25 C 22.265625 -4.25 24.359375 -5.648438 24.359375 -8.453125 C 24.359375 -11.253906 22.265625 -12.65625 18.078125 -12.65625 L 9.328125 -12.65625 L 9.328125 -4.25 Z M 18.078125 -4.25 "/></g></g></g><g fill="#ffffff" fill-opacity="1"><g transform="translate(243.633299, 187.310388)"><g><path d="M 11.90625 -22.484375 C 15.1875 -22.484375 17.691406 -21.695312 19.421875 -20.125 C 21.160156 -18.5625 22.03125 -16.195312 22.03125 -13.03125 L 22.03125 0 L 17.109375 0 L 17.109375 -2.703125 C 16.472656 -1.734375 15.5625 -0.988281 14.375 -0.46875 C 13.195312 0.0390625 11.78125 0.296875 10.125 0.296875 C 8.457031 0.296875 7 0.0078125 5.75 -0.5625 C 4.5 -1.132812 3.53125 -1.925781 2.84375 -2.9375 C 2.164062 -3.945312 1.828125 -5.09375 1.828125 -6.375 C 1.828125 -8.375 2.566406 -9.972656 4.046875 -11.171875 C 5.535156 -12.378906 7.878906 -12.984375 11.078125 -12.984375 L 16.828125 -12.984375 L 16.828125 -13.328125 C 16.828125 -14.878906 16.359375 -16.070312 15.421875 -16.90625 C 14.492188 -17.738281 13.113281 -18.15625 11.28125 -18.15625 C 10.03125 -18.15625 8.800781 -17.957031 7.59375 -17.5625 C 6.382812 -17.175781 5.363281 -16.640625 4.53125 -15.953125 L 2.5 -19.734375 C 3.664062 -20.617188 5.066406 -21.296875 6.703125 -21.765625 C 8.335938 -22.242188 10.070312 -22.484375 11.90625 -22.484375 Z M 11.203125 -3.5 C 12.503906 -3.5 13.660156 -3.796875 14.671875 -4.390625 C 15.691406 -4.984375 16.410156 -5.835938 16.828125 -6.953125 L 16.828125 -9.53125 L 11.453125 -9.53125 C 8.453125 -9.53125 6.953125 -8.546875 6.953125 -6.578125 C 6.953125 -5.628906 7.328125 -4.878906 8.078125 -4.328125 C 8.828125 -3.773438 9.867188 -3.5 11.203125 -3.5 Z M 11.203125 -3.5 "/></g></g></g><g fill="#ffffff" fill-opacity="1"><g transform="translate(266.490195, 187.310388)"><g><path d="M 25.484375 -22.234375 L 25.484375 -3.375 C 25.484375 4.457031 21.484375 8.375 13.484375 8.375 C 11.347656 8.375 9.320312 8.101562 7.40625 7.5625 C 5.488281 7.019531 3.910156 6.234375 2.671875 5.203125 L 5 1.296875 C 5.96875 2.097656 7.191406 2.738281 8.671875 3.21875 C 10.160156 3.707031 11.671875 3.953125 13.203125 3.953125 C 15.640625 3.953125 17.425781 3.394531 18.5625 2.28125 C 19.707031 1.175781 20.28125 -0.515625 20.28125 -2.796875 L 20.28125 -3.953125 C 19.394531 -2.984375 18.3125 -2.25 17.03125 -1.75 C 15.75 -1.25 14.347656 -1 12.828125 -1 C 10.710938 -1 8.800781 -1.445312 7.09375 -2.34375 C 5.382812 -3.25 4.035156 -4.519531 3.046875 -6.15625 C 2.066406 -7.800781 1.578125 -9.675781 1.578125 -11.78125 C 1.578125 -13.894531 2.066406 -15.765625 3.046875 -17.390625 C 4.035156 -19.015625 5.382812 -20.269531 7.09375 -21.15625 C 8.800781 -22.039062 10.710938 -22.484375 12.828125 -22.484375 C 14.429688 -22.484375 15.894531 -22.21875 17.21875 -21.6875 C 18.539062 -21.164062 19.644531 -20.363281 20.53125 -19.28125 L 20.53125 -22.234375 Z M 13.609375 -5.40625 C 15.585938 -5.40625 17.207031 -5.992188 18.46875 -7.171875 C 19.726562 -8.359375 20.359375 -9.894531 20.359375 -11.78125 C 20.359375 -13.644531 19.726562 -15.160156 18.46875 -16.328125 C 17.207031 -17.492188 15.585938 -18.078125 13.609375 -18.078125 C 11.617188 -18.078125 9.988281 -17.492188 8.71875 -16.328125 C 7.457031 -15.160156 6.828125 -13.644531 6.828125 -11.78125 C 6.828125 -9.894531 7.457031 -8.359375 8.71875 -7.171875 C 9.988281 -5.992188 11.617188 -5.40625 13.609375 -5.40625 Z M 13.609375 -5.40625 "/></g></g></g><g fill="#5ce1e6" fill-opacity="1"><g transform="translate(200.163406, 187.114793)"><g><path d="M 7.921875 -2 L 3.578125 -2 L 2.765625 0 L -0.203125 0 L 4.34375 -10.296875 L 7.203125 -10.296875 L 11.765625 0 L 8.734375 0 Z M 7.078125 -4.140625 L 5.75 -7.4375 L 4.421875 -4.140625 Z M 7.078125 -4.140625 "/></g></g></g></svg>