<svg xmlns="http://www.w3.org/2000/svg" xmlns:xlink="http://www.w3.org/1999/xlink" width="640" zoomAndPan="magnify" viewBox="0 0 480 269.999989" height="360" preserveAspectRatio="xMidYMid meet" version="1.0"><defs><g/></defs><g fill="#ffffff" fill-opacity="1"><g transform="translate(41.730954, 152.949129)"><g><path d="M 6.484375 -48.296875 L 15.453125 -48.296875 L 15.453125 0 L 6.484375 0 Z M 6.484375 -48.296875 "/></g></g></g><g fill="#ffffff" fill-opacity="1"><g transform="translate(59.736214, 152.949129)"><g><path d="M 26.5625 -37.265625 C 31.207031 -37.265625 34.929688 -35.90625 37.734375 -33.1875 C 40.546875 -30.476562 41.953125 -26.453125 41.953125 -21.109375 L 41.953125 0 L 33.328125 0 L 33.328125 -20.015625 C 33.328125 -23.234375 32.566406 -25.65625 31.046875 -27.28125 C 29.523438 -28.914062 27.363281 -29.734375 24.5625 -29.734375 C 21.382812 -29.734375 18.875 -28.78125 17.03125 -26.875 C 15.195312 -24.96875 14.28125 -22.21875 14.28125 -18.625 L 14.28125 0 L 5.65625 0 L 5.65625 -36.84375 L 13.875 -36.84375 L 13.875 -32.078125 C 15.300781 -33.785156 17.09375 -35.078125 19.25 -35.953125 C 21.414062 -36.828125 23.851562 -37.265625 26.5625 -37.265625 Z M 26.5625 -37.265625 "/></g></g></g><g fill="#ffffff" fill-opacity="1"><g transform="translate(102.991156, 152.949129)"><g><path d="M 17.046875 0.484375 C 14.054688 0.484375 11.132812 0.09375 8.28125 -0.6875 C 5.425781 -1.46875 3.148438 -2.457031 1.453125 -3.65625 L 4.765625 -10.21875 C 6.421875 -9.113281 8.410156 -8.226562 10.734375 -7.5625 C 13.054688 -6.894531 15.34375 -6.5625 17.59375 -6.5625 C 22.75 -6.5625 25.328125 -7.914062 25.328125 -10.625 C 25.328125 -11.914062 24.671875 -12.8125 23.359375 -13.3125 C 22.046875 -13.820312 19.941406 -14.304688 17.046875 -14.765625 C 14.003906 -15.222656 11.53125 -15.75 9.625 -16.34375 C 7.71875 -16.945312 6.0625 -17.992188 4.65625 -19.484375 C 3.25 -20.984375 2.546875 -23.066406 2.546875 -25.734375 C 2.546875 -29.234375 4.003906 -32.03125 6.921875 -34.125 C 9.847656 -36.21875 13.796875 -37.265625 18.765625 -37.265625 C 21.296875 -37.265625 23.828125 -36.972656 26.359375 -36.390625 C 28.890625 -35.816406 30.957031 -35.050781 32.5625 -34.09375 L 29.25 -27.53125 C 26.125 -29.375 22.609375 -30.296875 18.703125 -30.296875 C 16.171875 -30.296875 14.25 -29.914062 12.9375 -29.15625 C 11.625 -28.394531 10.96875 -27.394531 10.96875 -26.15625 C 10.96875 -24.769531 11.671875 -23.789062 13.078125 -23.21875 C 14.484375 -22.644531 16.65625 -22.101562 19.59375 -21.59375 C 22.539062 -21.132812 24.957031 -20.601562 26.84375 -20 C 28.726562 -19.40625 30.347656 -18.394531 31.703125 -16.96875 C 33.054688 -15.539062 33.734375 -13.519531 33.734375 -10.90625 C 33.734375 -7.457031 32.238281 -4.695312 29.25 -2.625 C 26.257812 -0.550781 22.191406 0.484375 17.046875 0.484375 Z M 17.046875 0.484375 "/></g></g></g><g fill="#ffffff" fill-opacity="1"><g transform="translate(134.518098, 152.949129)"><g><path d="M 41.328125 -36.84375 L 41.328125 0 L 33.125 0 L 33.125 -4.6875 C 31.738281 -3.03125 30.007812 -1.753906 27.9375 -0.859375 C 25.875 0.0351562 23.644531 0.484375 21.25 0.484375 C 16.332031 0.484375 12.457031 -0.882812 9.625 -3.625 C 6.789062 -6.363281 5.375 -10.421875 5.375 -15.796875 L 5.375 -36.84375 L 14 -36.84375 L 14 -16.96875 C 14 -13.65625 14.742188 -11.179688 16.234375 -9.546875 C 17.734375 -7.921875 19.863281 -7.109375 22.625 -7.109375 C 25.707031 -7.109375 28.15625 -8.0625 29.96875 -9.96875 C 31.789062 -11.875 32.703125 -14.625 32.703125 -18.21875 L 32.703125 -36.84375 Z M 41.328125 -36.84375 "/></g></g></g><g fill="#ffffff" fill-opacity="1"><g transform="translate(177.497091, 152.949129)"><g><path d="M 13.875 -31.46875 C 16.351562 -35.332031 20.722656 -37.265625 26.984375 -37.265625 L 26.984375 -29.046875 C 26.242188 -29.179688 25.578125 -29.25 24.984375 -29.25 C 21.617188 -29.25 18.992188 -28.269531 17.109375 -26.3125 C 15.222656 -24.363281 14.28125 -21.550781 14.28125 -17.875 L 14.28125 0 L 5.65625 0 L 5.65625 -36.84375 L 13.875 -36.84375 Z M 13.875 -31.46875 "/></g></g></g><g fill="#ffffff" fill-opacity="1"><g transform="translate(202.470157, 152.949129)"><g><path d="M 40.296875 -18.21875 C 40.296875 -17.613281 40.25 -16.757812 40.15625 -15.65625 L 11.25 -15.65625 C 11.75 -12.945312 13.066406 -10.796875 15.203125 -9.203125 C 17.347656 -7.617188 20.007812 -6.828125 23.1875 -6.828125 C 27.226562 -6.828125 30.5625 -8.160156 33.1875 -10.828125 L 37.8125 -5.515625 C 36.15625 -3.535156 34.0625 -2.039062 31.53125 -1.03125 C 29 -0.0195312 26.148438 0.484375 22.984375 0.484375 C 18.929688 0.484375 15.363281 -0.316406 12.28125 -1.921875 C 9.195312 -3.535156 6.816406 -5.78125 5.140625 -8.65625 C 3.460938 -11.53125 2.625 -14.785156 2.625 -18.421875 C 2.625 -22.015625 3.4375 -25.25 5.0625 -28.125 C 6.695312 -31 8.960938 -33.238281 11.859375 -34.84375 C 14.765625 -36.457031 18.035156 -37.265625 21.671875 -37.265625 C 25.253906 -37.265625 28.457031 -36.46875 31.28125 -34.875 C 34.113281 -33.289062 36.320312 -31.0625 37.90625 -28.1875 C 39.5 -25.3125 40.296875 -21.988281 40.296875 -18.21875 Z M 21.671875 -30.359375 C 18.910156 -30.359375 16.570312 -29.539062 14.65625 -27.90625 C 12.75 -26.28125 11.585938 -24.109375 11.171875 -21.390625 L 32.078125 -21.390625 C 31.710938 -24.054688 30.585938 -26.21875 28.703125 -27.875 C 26.816406 -29.53125 24.472656 -30.359375 21.671875 -30.359375 Z M 21.671875 -30.359375 "/></g></g></g><g fill="#ffffff" fill-opacity="1"><g transform="translate(264.070651, 152.949098)"><g><path d="M 40.703125 -25.109375 C 43.378906 -24.242188 45.5 -22.785156 47.0625 -20.734375 C 48.625 -18.679688 49.40625 -16.140625 49.40625 -13.109375 C 49.40625 -8.921875 47.796875 -5.6875 44.578125 -3.40625 C 41.359375 -1.132812 36.664062 0 30.5 0 L 6.484375 0 L 6.484375 -48.296875 L 29.125 -48.296875 C 34.820312 -48.296875 39.210938 -47.179688 42.296875 -44.953125 C 45.378906 -42.722656 46.921875 -39.648438 46.921875 -35.734375 C 46.921875 -33.347656 46.367188 -31.234375 45.265625 -29.390625 C 44.160156 -27.554688 42.640625 -26.128906 40.703125 -25.109375 Z M 15.453125 -41.265625 L 15.453125 -27.9375 L 28.15625 -27.9375 C 31.28125 -27.9375 33.679688 -28.5 35.359375 -29.625 C 37.035156 -30.757812 37.875 -32.40625 37.875 -34.5625 C 37.875 -36.769531 37.035156 -38.4375 35.359375 -39.5625 C 33.679688 -40.695312 31.28125 -41.265625 28.15625 -41.265625 Z M 29.953125 -7.03125 C 36.890625 -7.03125 40.359375 -9.351562 40.359375 -14 C 40.359375 -18.644531 36.890625 -20.96875 29.953125 -20.96875 L 15.453125 -20.96875 L 15.453125 -7.03125 Z M 29.953125 -7.03125 "/></g></g></g><g fill="#ffffff" fill-opacity="1"><g transform="translate(312.577655, 152.949098)"><g><path d="M 19.734375 -37.265625 C 25.160156 -37.265625 29.3125 -35.960938 32.1875 -33.359375 C 35.0625 -30.765625 36.5 -26.84375 36.5 -21.59375 L 36.5 0 L 28.359375 0 L 28.359375 -4.484375 C 27.296875 -2.867188 25.785156 -1.632812 23.828125 -0.78125 C 21.878906 0.0625 19.523438 0.484375 16.765625 0.484375 C 14.003906 0.484375 11.585938 0.015625 9.515625 -0.921875 C 7.453125 -1.867188 5.851562 -3.179688 4.71875 -4.859375 C 3.59375 -6.546875 3.03125 -8.445312 3.03125 -10.5625 C 3.03125 -13.875 4.257812 -16.53125 6.71875 -18.53125 C 9.1875 -20.53125 13.066406 -21.53125 18.359375 -21.53125 L 27.875 -21.53125 L 27.875 -22.078125 C 27.875 -24.648438 27.101562 -26.625 25.5625 -28 C 24.019531 -29.382812 21.734375 -30.078125 18.703125 -30.078125 C 16.628906 -30.078125 14.59375 -29.753906 12.59375 -29.109375 C 10.59375 -28.472656 8.898438 -27.578125 7.515625 -26.421875 L 4.140625 -32.703125 C 6.066406 -34.171875 8.390625 -35.296875 11.109375 -36.078125 C 13.828125 -36.867188 16.703125 -37.265625 19.734375 -37.265625 Z M 18.5625 -5.796875 C 20.71875 -5.796875 22.632812 -6.289062 24.3125 -7.28125 C 26 -8.269531 27.1875 -9.679688 27.875 -11.515625 L 27.875 -15.796875 L 18.96875 -15.796875 C 14 -15.796875 11.515625 -14.164062 11.515625 -10.90625 C 11.515625 -9.34375 12.132812 -8.097656 13.375 -7.171875 C 14.625 -6.253906 16.351562 -5.796875 18.5625 -5.796875 Z M 18.5625 -5.796875 "/></g></g></g><g fill="#ffffff" fill-opacity="1"><g transform="translate(350.45866, 152.949098)"><g><path d="M 42.234375 -36.84375 L 42.234375 -5.59375 C 42.234375 7.382812 35.609375 13.875 22.359375 13.875 C 18.816406 13.875 15.457031 13.421875 12.28125 12.515625 C 9.101562 11.617188 6.484375 10.320312 4.421875 8.625 L 8.28125 2.140625 C 9.882812 3.472656 11.914062 4.539062 14.375 5.34375 C 16.84375 6.15625 19.34375 6.5625 21.875 6.5625 C 25.914062 6.5625 28.878906 5.640625 30.765625 3.796875 C 32.660156 1.953125 33.609375 -0.851562 33.609375 -4.625 L 33.609375 -6.5625 C 32.128906 -4.945312 30.332031 -3.722656 28.21875 -2.890625 C 26.101562 -2.066406 23.78125 -1.65625 21.25 -1.65625 C 17.757812 -1.65625 14.597656 -2.398438 11.765625 -3.890625 C 8.929688 -5.390625 6.695312 -7.492188 5.0625 -10.203125 C 3.4375 -12.921875 2.625 -16.03125 2.625 -19.53125 C 2.625 -23.019531 3.4375 -26.109375 5.0625 -28.796875 C 6.695312 -31.492188 8.929688 -33.578125 11.765625 -35.046875 C 14.597656 -36.523438 17.757812 -37.265625 21.25 -37.265625 C 23.914062 -37.265625 26.34375 -36.828125 28.53125 -35.953125 C 30.71875 -35.078125 32.546875 -33.742188 34.015625 -31.953125 L 34.015625 -36.84375 Z M 22.5625 -8.96875 C 25.832031 -8.96875 28.507812 -9.941406 30.59375 -11.890625 C 32.6875 -13.847656 33.734375 -16.394531 33.734375 -19.53125 C 33.734375 -22.613281 32.6875 -25.117188 30.59375 -27.046875 C 28.507812 -28.984375 25.832031 -29.953125 22.5625 -29.953125 C 19.25 -29.953125 16.546875 -28.984375 14.453125 -27.046875 C 12.359375 -25.117188 11.3125 -22.613281 11.3125 -19.53125 C 11.3125 -16.394531 12.359375 -13.847656 14.453125 -11.890625 C 16.546875 -9.941406 19.25 -8.96875 22.5625 -8.96875 Z M 22.5625 -8.96875 "/></g></g></g><g fill="#5ce1e6" fill-opacity="1"><g transform="translate(244.683827, 150.595929)"><g><path d="M 12.234375 -3.09375 L 5.515625 -3.09375 L 4.265625 0 L -0.3125 0 L 6.703125 -15.890625 L 11.125 -15.890625 L 18.15625 0 L 13.484375 0 Z M 10.921875 -6.40625 L 8.875 -11.484375 L 6.828125 -6.40625 Z M 10.921875 -6.40625 "/></g></g></g></svg>