<svg xmlns="http://www.w3.org/2000/svg" xmlns:xlink="http://www.w3.org/1999/xlink" width="640" zoomAndPan="magnify" viewBox="0 0 480 269.999989" height="360" preserveAspectRatio="xMidYMid meet" version="1.0"><defs><clipPath id="a05472f8ad"><path d="M 11.972656 0 L 467.972656 0 L 467.972656 270 L 11.972656 270 Z M 11.972656 0 " clip-rule="nonzero"/></clipPath></defs><g clip-path="url(#a05472f8ad)"><rect x="-48" width="576" fill="#ffffff" y="-26.999999" height="323.999987" fill-opacity="1"/><rect x="-48" width="576" fill="#000000" y="-26.999999" height="323.999987" fill-opacity="1"/></g><path fill="#ffffff" d="M 101.632812 114.46875 L 108.207031 114.46875 L 108.207031 149.90625 L 101.632812 149.90625 Z M 101.632812 114.46875 " fill-opacity="1" fill-rule="nonzero"/><path fill="#ffffff" d="M 129.570312 122.5625 C 132.976562 122.5625 135.707031 123.5625 137.757812 125.546875 C 139.820312 127.539062 140.855469 130.496094 140.855469 134.421875 L 140.855469 149.90625 L 134.527344 149.90625 L 134.527344 135.21875 C 134.527344 132.863281 133.96875 131.085938 132.855469 129.878906 C 131.742188 128.675781 130.160156 128.074219 128.105469 128.074219 C 125.773438 128.074219 123.929688 128.777344 122.578125 130.183594 C 121.234375 131.589844 120.5625 133.601562 120.5625 136.226562 L 120.5625 149.90625 L 114.238281 149.90625 L 114.238281 122.867188 L 120.257812 122.867188 L 120.257812 126.363281 C 121.296875 125.109375 122.605469 124.167969 124.191406 123.53125 C 125.789062 122.886719 127.578125 122.5625 129.570312 122.5625 Z M 129.570312 122.5625 " fill-opacity="1" fill-rule="nonzero"/><path fill="#ffffff" d="M 154.320312 150.265625 C 152.125 150.265625 149.988281 149.980469 147.898438 149.410156 C 145.808594 148.832031 144.136719 148.101562 142.882812 147.226562 L 145.3125 142.417969 C 146.53125 143.230469 147.984375 143.882812 149.683594 144.375 C 151.394531 144.859375 153.074219 145.097656 154.738281 145.097656 C 158.507812 145.097656 160.398438 144.105469 160.398438 142.113281 C 160.398438 141.164062 159.914062 140.507812 158.957031 140.140625 C 157.992188 139.757812 156.449219 139.40625 154.320312 139.074219 C 152.085938 138.734375 150.273438 138.347656 148.867188 137.917969 C 147.46875 137.472656 146.265625 136.710938 145.238281 135.617188 C 144.210938 134.515625 143.699219 132.984375 143.699219 131.019531 C 143.699219 128.449219 144.769531 126.398438 146.910156 124.863281 C 149.046875 123.332031 151.945312 122.5625 155.59375 122.5625 C 157.441406 122.5625 159.296875 122.78125 161.160156 123.210938 C 163.023438 123.628906 164.542969 124.1875 165.71875 124.882812 L 163.289062 129.707031 C 160.992188 128.355469 158.410156 127.675781 155.535156 127.675781 C 153.683594 127.675781 152.277344 127.957031 151.316406 128.511719 C 150.355469 129.070312 149.875 129.804688 149.875 130.714844 C 149.875 131.730469 150.386719 132.453125 151.414062 132.882812 C 152.4375 133.300781 154.035156 133.695312 156.199219 134.058594 C 158.351562 134.402344 160.121094 134.796875 161.503906 135.238281 C 162.894531 135.667969 164.085938 136.410156 165.074219 137.460938 C 166.070312 138.5 166.574219 139.980469 166.574219 141.90625 C 166.574219 144.441406 165.476562 146.464844 163.289062 147.984375 C 161.09375 149.507812 158.105469 150.265625 154.320312 150.265625 Z M 154.320312 150.265625 " fill-opacity="1" fill-rule="nonzero"/><path fill="#ffffff" d="M 195.277344 122.867188 L 195.277344 149.90625 L 189.253906 149.90625 L 189.253906 146.464844 C 188.238281 147.683594 186.976562 148.621094 185.457031 149.277344 C 183.9375 149.933594 182.300781 150.265625 180.554688 150.265625 C 176.945312 150.265625 174.097656 149.269531 172.023438 147.265625 C 169.941406 145.25 168.90625 142.265625 168.90625 138.316406 L 168.90625 122.867188 L 175.234375 122.867188 L 175.234375 137.441406 C 175.234375 139.875 175.773438 141.691406 176.867188 142.894531 C 177.96875 144.101562 179.53125 144.699219 181.5625 144.699219 C 183.828125 144.699219 185.625 143.996094 186.957031 142.589844 C 188.285156 141.183594 188.953125 139.164062 188.953125 136.527344 L 188.953125 122.867188 Z M 195.277344 122.867188 " fill-opacity="1" fill-rule="nonzero"/><path fill="#ffffff" d="M 206.679688 126.820312 C 208.503906 123.984375 211.703125 122.5625 216.292969 122.5625 L 216.292969 128.585938 C 215.746094 128.488281 215.257812 128.433594 214.832031 128.433594 C 212.359375 128.433594 210.433594 129.15625 209.054688 130.601562 C 207.671875 132.035156 206.984375 134.097656 206.984375 136.796875 L 206.984375 149.90625 L 200.65625 149.90625 L 200.65625 122.867188 L 206.679688 122.867188 Z M 206.679688 126.820312 " fill-opacity="1" fill-rule="nonzero"/><path fill="#ffffff" d="M 244.386719 136.527344 C 244.386719 136.976562 244.351562 137.601562 244.289062 138.410156 L 223.066406 138.410156 C 223.449219 140.402344 224.421875 141.976562 225.992188 143.140625 C 227.5625 144.308594 229.507812 144.890625 231.828125 144.890625 C 234.800781 144.890625 237.25 143.914062 239.179688 141.964844 L 242.5625 145.859375 C 241.347656 147.300781 239.808594 148.398438 237.945312 149.144531 C 236.09375 149.894531 234.003906 150.265625 231.675781 150.265625 C 228.710938 150.265625 226.09375 149.675781 223.828125 148.5 C 221.570312 147.3125 219.824219 145.664062 218.582031 143.558594 C 217.351562 141.445312 216.742188 139.050781 216.742188 136.378906 C 216.742188 133.753906 217.335938 131.390625 218.527344 129.269531 C 219.726562 127.15625 221.394531 125.507812 223.523438 124.332031 C 225.652344 123.152344 228.050781 122.5625 230.726562 122.5625 C 233.355469 122.5625 235.707031 123.148438 237.773438 124.3125 C 239.847656 125.480469 241.46875 127.121094 242.636719 129.234375 C 243.800781 131.335938 244.386719 133.769531 244.386719 136.527344 Z M 230.726562 127.617188 C 228.695312 127.617188 226.980469 128.222656 225.574219 129.421875 C 224.179688 130.628906 223.332031 132.226562 223.03125 134.210938 L 238.363281 134.210938 C 238.097656 132.25 237.265625 130.65625 235.875 129.441406 C 234.492188 128.226562 232.777344 127.617188 230.726562 127.617188 Z M 230.726562 127.617188 " fill-opacity="1" fill-rule="nonzero"/><path fill="#ffffff" d="M 288.964844 131.476562 C 290.929688 132.121094 292.480469 133.199219 293.621094 134.707031 C 294.769531 136.203125 295.351562 138.0625 295.351562 140.292969 C 295.351562 143.359375 294.164062 145.726562 291.796875 147.398438 C 289.441406 149.070312 286.003906 149.90625 281.480469 149.90625 L 263.867188 149.90625 L 263.867188 114.46875 L 280.472656 114.46875 C 284.652344 114.46875 287.871094 115.289062 290.125 116.921875 C 292.390625 118.554688 293.527344 120.8125 293.527344 123.683594 C 293.527344 125.433594 293.117188 126.988281 292.3125 128.339844 C 291.5 129.683594 290.382812 130.730469 288.964844 131.476562 Z M 270.441406 119.621094 L 270.441406 129.402344 L 279.75 129.402344 C 282.054688 129.402344 283.824219 128.996094 285.050781 128.167969 C 286.277344 127.332031 286.894531 126.125 286.894531 124.539062 C 286.894531 122.921875 286.277344 121.699219 285.050781 120.875 C 283.824219 120.039062 282.054688 119.621094 279.75 119.621094 Z M 281.082031 144.738281 C 286.171875 144.738281 288.71875 143.035156 288.71875 139.625 C 288.71875 136.21875 286.171875 134.515625 281.082031 134.515625 L 270.441406 134.515625 L 270.441406 144.738281 Z M 281.082031 144.738281 " fill-opacity="1" fill-rule="nonzero"/><path fill="#ffffff" d="M 309.167969 122.5625 C 313.160156 122.5625 316.203125 123.523438 318.308594 125.433594 C 320.421875 127.332031 321.480469 130.210938 321.480469 134.058594 L 321.480469 149.90625 L 315.496094 149.90625 L 315.496094 146.617188 C 314.722656 147.796875 313.613281 148.703125 312.171875 149.335938 C 310.738281 149.953125 309.015625 150.265625 307.003906 150.265625 C 304.976562 150.265625 303.203125 149.914062 301.683594 149.222656 C 300.164062 148.527344 298.984375 147.5625 298.148438 146.332031 C 297.324219 145.109375 296.914062 143.710938 296.914062 142.152344 C 296.914062 139.722656 297.8125 137.777344 299.613281 136.320312 C 301.421875 134.851562 304.273438 134.117188 308.160156 134.117188 L 315.152344 134.117188 L 315.152344 133.699219 C 315.152344 131.8125 314.585938 130.363281 313.445312 129.347656 C 312.3125 128.335938 310.636719 127.828125 308.410156 127.828125 C 306.890625 127.828125 305.394531 128.070312 303.925781 128.550781 C 302.453125 129.019531 301.210938 129.671875 300.199219 130.507812 L 297.730469 125.90625 C 299.148438 124.835938 300.851562 124.007812 302.84375 123.4375 C 304.828125 122.859375 306.9375 122.5625 309.167969 122.5625 Z M 308.3125 145.648438 C 309.894531 145.648438 311.300781 145.289062 312.53125 144.566406 C 313.773438 143.84375 314.644531 142.808594 315.152344 141.449219 L 315.152344 138.316406 L 308.617188 138.316406 C 304.96875 138.316406 303.144531 139.511719 303.144531 141.90625 C 303.144531 143.058594 303.601562 143.972656 304.515625 144.640625 C 305.425781 145.316406 306.691406 145.648438 308.3125 145.648438 Z M 308.3125 145.648438 " fill-opacity="1" fill-rule="nonzero"/><path fill="#ffffff" d="M 353.472656 122.867188 L 353.472656 145.800781 C 353.472656 155.324219 348.609375 160.089844 338.882812 160.089844 C 336.285156 160.089844 333.820312 159.757812 331.492188 159.101562 C 329.160156 158.441406 327.238281 157.484375 325.734375 156.230469 L 328.566406 151.480469 C 329.742188 152.457031 331.230469 153.234375 333.03125 153.820312 C 334.839844 154.414062 336.679688 154.710938 338.539062 154.710938 C 341.503906 154.710938 343.675781 154.03125 345.058594 152.679688 C 346.449219 151.335938 347.148438 149.277344 347.148438 146.503906 L 347.148438 145.097656 C 346.070312 146.277344 344.753906 147.167969 343.195312 147.777344 C 341.636719 148.386719 339.933594 148.6875 338.085938 148.6875 C 335.507812 148.6875 333.1875 148.148438 331.109375 147.054688 C 329.03125 145.953125 327.390625 144.410156 326.191406 142.417969 C 324.996094 140.417969 324.402344 138.140625 324.402344 135.578125 C 324.402344 133.007812 324.996094 130.734375 326.191406 128.757812 C 327.390625 126.78125 329.03125 125.257812 331.109375 124.179688 C 333.1875 123.105469 335.507812 122.5625 338.085938 122.5625 C 340.03125 122.5625 341.8125 122.886719 343.421875 123.53125 C 345.027344 124.167969 346.371094 125.144531 347.449219 126.460938 L 347.449219 122.867188 Z M 339.035156 143.332031 C 341.4375 143.332031 343.410156 142.617188 344.941406 141.183594 C 346.472656 139.738281 347.242188 137.875 347.242188 135.578125 C 347.242188 133.3125 346.472656 131.46875 344.941406 130.050781 C 343.410156 128.632812 341.4375 127.921875 339.035156 127.921875 C 336.613281 127.921875 334.632812 128.632812 333.085938 130.050781 C 331.554688 131.46875 330.789062 133.3125 330.789062 135.578125 C 330.789062 137.875 331.554688 139.738281 333.085938 141.183594 C 334.632812 142.617188 336.613281 143.332031 339.035156 143.332031 Z M 339.035156 143.332031 " fill-opacity="1" fill-rule="nonzero"/><path fill="#5ce1e6" d="M 255.496094 147.5 L 250.214844 147.5 L 249.226562 149.933594 L 245.617188 149.933594 L 251.144531 137.410156 L 254.621094 137.410156 L 260.171875 149.933594 L 256.484375 149.933594 Z M 254.472656 144.898438 L 252.855469 140.886719 L 251.242188 144.898438 Z M 254.472656 144.898438 " fill-opacity="1" fill-rule="nonzero"/></svg>